<svg width="623" height="618" viewBox="0 0 623 618" fill="none" xmlns="http://www.w3.org/2000/svg">
<rect x="72.1943" y="39.2612" width="168.411" height="505.232" fill="#F3CFB4"/>
<rect x="240.605" y="39.2612" width="168.411" height="505.232" fill="#ED9E8C"/>
<rect x="409.016" y="39.2612" width="168.411" height="505.232" fill="#DE6E6E"/>
<g style="mix-blend-mode:darken">
<rect x="577.427" y="39.2612" width="168.411" height="505.232" transform="rotate(90 577.427 39.2612)" fill="#88BB96"/>
</g>
<g style="mix-blend-mode:darken">
<rect x="577.427" y="207.672" width="168.411" height="505.232" transform="rotate(90 577.427 207.672)" fill="#A1D99C"/>
</g>
<g style="mix-blend-mode:darken">
<rect x="577.427" y="376.083" width="168.411" height="505.232" transform="rotate(90 577.427 376.083)" fill="#E0F1BC"/>
</g>
<mask id="mask0_9_52" style="mask-type:alpha" maskUnits="userSpaceOnUse" x="0" y="0" width="42" height="560">
<rect width="42" height="182" fill="#D9D9D9"/>
<rect y="399" width="42" height="161" fill="#D9D9D9"/>
</mask>
<g mask="url(#mask0_9_52)">
<path d="M21.499 0L7.06527 25L35.9328 25L21.499 0ZM23.999 545.048L23.999 22.5L18.999 22.5L18.999 545.048H23.999Z" fill="#8A8A8A"/>
</g>
<mask id="mask1_9_52" style="mask-type:alpha" maskUnits="userSpaceOnUse" x="72" y="566" width="551" height="52">
<rect x="72" y="566" width="75" height="52" fill="#D9D9D9"/>
<rect x="502" y="566" width="121" height="52" fill="#D9D9D9"/>
</mask>
<g mask="url(#mask1_9_52)">
<path d="M616 591.717L591 577.283V606.151L616 591.717ZM71.9521 594.217L593.5 594.217V589.217L71.9521 589.217V594.217Z" fill="#8A8A8A"/>
</g>
<path d="M33 379.368L9.72727 379.368L9.72727 374.447L19.3295 374.447L19.3295 364.459L9.72727 364.459L9.72727 359.55L33 359.55L33 364.459L23.3864 364.459L23.3864 374.447L33 374.447L33 379.368ZM33 355.584L15.5455 355.584L15.5455 350.743L33 350.743L33 355.584ZM13.2955 353.152C13.2955 353.872 13.0568 354.489 12.5795 355.004C12.0947 355.512 11.5151 355.766 10.8409 355.766C10.1742 355.766 9.60227 355.512 9.125 355.004C8.64015 354.489 8.39772 353.872 8.39772 353.152C8.39772 352.432 8.64015 351.819 9.125 351.311C9.60227 350.796 10.1742 350.538 10.8409 350.538C11.5151 350.538 12.0947 350.796 12.5795 351.311C13.0568 351.819 13.2955 352.432 13.2955 353.152ZM39.9091 339.001C39.9091 340.57 39.6932 341.914 39.2614 343.036C38.8371 344.149 38.2576 345.036 37.5227 345.695C36.7879 346.354 35.9621 346.782 35.0455 346.979L34.4432 342.501C34.7917 342.365 35.1174 342.149 35.4205 341.854C35.7235 341.558 35.9659 341.168 36.1477 340.683C36.3371 340.191 36.4318 339.592 36.4318 338.888C36.4318 337.835 36.1742 336.967 35.6591 336.286C35.1515 335.596 34.2992 335.251 33.1023 335.251L29.9091 335.251L29.9091 335.456C30.3939 335.668 30.8523 335.986 31.2841 336.411C31.7159 336.835 32.0682 337.38 32.3409 338.047C32.6136 338.714 32.75 339.509 32.75 340.433C32.75 341.744 32.447 342.937 31.8409 344.013C31.2273 345.081 30.2917 345.933 29.0341 346.57C27.7689 347.198 26.1705 347.513 24.2386 347.513C22.2614 347.513 20.6098 347.191 19.2841 346.547C17.9583 345.903 16.9659 345.047 16.3068 343.979C15.6477 342.903 15.3182 341.725 15.3182 340.445C15.3182 339.467 15.4848 338.649 15.8182 337.99C16.1439 337.331 16.553 336.801 17.0455 336.399C17.5303 335.99 18.0076 335.676 18.4773 335.456L18.4773 335.274L15.5455 335.274L15.5455 330.467L33.1705 330.467C34.6553 330.467 35.8977 330.831 36.8977 331.558C37.8977 332.286 38.6477 333.293 39.1477 334.581C39.6553 335.861 39.9091 337.335 39.9091 339.001ZM29.1136 338.899C29.1136 338.119 28.9205 337.46 28.5341 336.922C28.1401 336.376 27.5795 335.96 26.8523 335.672C26.1174 335.376 25.2386 335.229 24.2159 335.229C23.1932 335.229 22.3068 335.373 21.5568 335.661C20.7992 335.948 20.2121 336.365 19.7955 336.911C19.3788 337.456 19.1705 338.119 19.1705 338.899C19.1705 339.695 19.3864 340.365 19.8182 340.911C20.2424 341.456 20.8333 341.869 21.5909 342.149C22.3485 342.429 23.2235 342.57 24.2159 342.57C25.2235 342.57 26.0947 342.429 26.8295 342.149C27.5568 341.861 28.1212 341.448 28.5227 340.911C28.9167 340.365 29.1136 339.695 29.1136 338.899ZM22.9091 321.774L33 321.774L33 326.615L9.72727 326.615L9.72727 321.911L18.625 321.911L18.625 321.706C17.5947 321.312 16.7879 320.676 16.2045 319.797C15.6136 318.918 15.3182 317.816 15.3182 316.49C15.3182 315.278 15.5833 314.221 16.1136 313.32C16.6364 312.411 17.3901 311.706 18.375 311.206C19.3523 310.698 20.5227 310.448 21.8864 310.456L33 310.456L33 315.297L22.75 315.297C21.6742 315.289 20.8371 315.562 20.2386 316.115C19.6401 316.661 19.3409 317.426 19.3409 318.411C19.3409 319.07 19.4811 319.653 19.7614 320.161C20.0417 320.661 20.4508 321.054 20.9886 321.342C21.5189 321.623 22.1591 321.767 22.9091 321.774ZM33.3409 298.692C33.3409 300.487 32.9773 302.033 32.25 303.328C31.5151 304.616 30.4773 305.608 29.1364 306.305C27.7879 307.002 26.1932 307.351 24.3523 307.351C22.5568 307.351 20.9811 307.002 19.625 306.305C18.2689 305.608 17.2121 304.627 16.4545 303.362C15.697 302.089 15.3182 300.597 15.3182 298.885C15.3182 297.733 15.5038 296.661 15.875 295.669C16.2386 294.669 16.7879 293.798 17.5227 293.055C18.2576 292.305 19.1818 291.722 20.2954 291.305C21.4015 290.889 22.697 290.68 24.1818 290.68L25.5114 290.68L25.5114 305.419L22.5114 305.419L22.5114 295.237C21.8144 295.237 21.197 295.389 20.6591 295.692C20.1212 295.995 19.7008 296.415 19.3977 296.953C19.0871 297.483 18.9318 298.101 18.9318 298.805C18.9318 299.54 19.1023 300.192 19.4432 300.76C19.7765 301.321 20.2273 301.76 20.7954 302.078C21.3561 302.396 21.9811 302.559 22.6704 302.567L25.5227 302.567C26.3864 302.567 27.1326 302.408 27.7614 302.089C28.3901 301.764 28.875 301.305 29.2159 300.714C29.5568 300.124 29.7273 299.423 29.7273 298.612C29.7273 298.074 29.6515 297.582 29.5 297.135C29.3485 296.688 29.1212 296.305 28.8182 295.987C28.5151 295.669 28.1439 295.427 27.7045 295.26L28 290.783C29.0758 291.01 30.0151 291.476 30.8182 292.18C31.6136 292.877 32.2348 293.779 32.6818 294.885C33.1212 295.983 33.3409 297.252 33.3409 298.692ZM33 287.521L15.5454 287.521L15.5454 282.828L18.5909 282.828L18.5909 282.646C17.5076 282.328 16.6894 281.794 16.1364 281.044C15.5758 280.294 15.2954 279.43 15.2954 278.453C15.2954 278.211 15.3106 277.949 15.3409 277.669C15.3712 277.389 15.4129 277.143 15.4659 276.93L19.7614 276.93C19.6932 277.158 19.6326 277.472 19.5795 277.874C19.5265 278.275 19.5 278.643 19.5 278.976C19.5 279.688 19.6553 280.324 19.9659 280.885C20.2689 281.438 20.6932 281.877 21.2386 282.203C21.7841 282.521 22.4129 282.68 23.125 282.68L33 282.68L33 287.521ZM17.25 251.499C16.697 251.658 16.2083 251.881 15.7841 252.169C15.3523 252.457 14.9886 252.809 14.6932 253.226C14.3901 253.635 14.1591 254.105 14 254.635C13.8409 255.158 13.7614 255.737 13.7614 256.374C13.7614 257.563 14.0568 258.608 14.6477 259.51C15.2386 260.404 16.0985 261.101 17.2273 261.601C18.3485 262.101 19.7197 262.351 21.3409 262.351C22.9621 262.351 24.3409 262.105 25.4773 261.612C26.6136 261.12 27.4811 260.423 28.0795 259.521C28.6704 258.62 28.9659 257.555 28.9659 256.328C28.9659 255.214 28.7689 254.264 28.375 253.476C27.9735 252.68 27.4091 252.074 26.6818 251.658C25.9545 251.233 25.0947 251.021 24.1023 251.021L24.25 250.021L24.25 256.021L20.5454 256.021L20.5454 246.283L23.4773 246.283C25.5227 246.283 27.2803 246.714 28.75 247.578C30.2121 248.442 31.3409 249.631 32.1364 251.146C32.9242 252.661 33.3182 254.396 33.3182 256.351C33.3182 258.533 32.8371 260.449 31.875 262.101C30.9053 263.752 29.5303 265.04 27.75 265.964C25.9621 266.881 23.8409 267.339 21.3864 267.339C19.5 267.339 17.8182 267.067 16.3409 266.521C14.8561 265.968 13.5985 265.196 12.5682 264.203C11.5379 263.211 10.7538 262.055 10.2159 260.737C9.67802 259.419 9.40908 257.991 9.40908 256.453C9.40908 255.135 9.60226 253.908 9.98863 252.771C10.3674 251.635 10.9053 250.627 11.6023 249.749C12.2992 248.862 13.1288 248.139 14.0909 247.578C15.0454 247.018 16.0985 246.658 17.25 246.499L17.25 251.499ZM33 234.337L33 242.587L9.72726 242.587L9.72726 234.268C9.72726 231.928 10.1932 229.912 11.125 228.223C12.0492 226.534 13.3788 225.234 15.1136 224.325C16.8485 223.409 18.9242 222.95 21.3409 222.95C23.7651 222.95 25.8485 223.409 27.5909 224.325C29.3333 225.234 30.6704 226.541 31.6023 228.246C32.5341 229.943 33 231.973 33 234.337ZM28.7841 237.666L28.7841 234.541C28.7841 233.087 28.5265 231.863 28.0114 230.871C27.4886 229.871 26.6818 229.121 25.5909 228.621C24.4924 228.113 23.0757 227.859 21.3409 227.859C19.6212 227.859 18.2159 228.113 17.125 228.621C16.0341 229.121 15.2311 229.867 14.7159 230.859C14.2007 231.852 13.9432 233.075 13.9432 234.53L13.9432 237.666L28.7841 237.666ZM33 219.305L9.72726 219.305L9.72726 210.124C9.72726 208.358 10.0644 206.855 10.7386 205.612C11.4053 204.37 12.3333 203.423 13.5227 202.771C14.7045 202.112 16.0682 201.783 17.6136 201.783C19.1591 201.783 20.5227 202.116 21.7045 202.783C22.8864 203.449 23.8068 204.415 24.4659 205.68C25.125 206.938 25.4545 208.461 25.4545 210.249L25.4545 216.101L21.5114 216.101L21.5114 211.044C21.5114 210.097 21.3485 209.317 21.0227 208.703C20.6894 208.082 20.2311 207.62 19.6477 207.317C19.0568 207.006 18.3788 206.851 17.6136 206.851C16.8409 206.851 16.1667 207.006 15.5909 207.317C15.0076 207.62 14.5568 208.082 14.2386 208.703C13.9129 209.324 13.75 210.112 13.75 211.067L13.75 214.385L33 214.385L33 219.305Z" fill="#8A8A8A"/>
<path d="M160.382 603L160.382 579.727H165.303L165.303 589.33L175.291 589.33L175.291 579.727H180.2L180.2 603H175.291L175.291 593.386L165.303 593.386L165.303 603H160.382ZM184.166 603L184.166 585.545H189.007L189.007 603H184.166ZM186.598 583.295C185.878 583.295 185.261 583.057 184.746 582.58C184.238 582.095 183.984 581.515 183.984 580.841C183.984 580.174 184.238 579.602 184.746 579.125C185.261 578.64 185.878 578.398 186.598 578.398C187.318 578.398 187.931 578.64 188.439 579.125C188.954 579.602 189.212 580.174 189.212 580.841C189.212 581.515 188.954 582.095 188.439 582.58C187.931 583.057 187.318 583.295 186.598 583.295ZM200.749 609.909C199.18 609.909 197.836 609.693 196.714 609.261C195.601 608.837 194.714 608.258 194.055 607.523C193.396 606.788 192.968 605.962 192.771 605.045L197.249 604.443C197.385 604.792 197.601 605.117 197.896 605.42C198.192 605.723 198.582 605.966 199.067 606.148C199.559 606.337 200.158 606.432 200.862 606.432C201.915 606.432 202.783 606.174 203.464 605.659C204.154 605.152 204.499 604.299 204.499 603.102V599.909H204.294C204.082 600.394 203.764 600.852 203.339 601.284C202.915 601.716 202.37 602.068 201.703 602.341C201.036 602.614 200.241 602.75 199.317 602.75C198.006 602.75 196.813 602.447 195.737 601.841C194.669 601.227 193.817 600.292 193.18 599.034C192.552 597.769 192.237 596.17 192.237 594.239C192.237 592.261 192.559 590.61 193.203 589.284C193.847 587.958 194.703 586.966 195.771 586.307C196.847 585.648 198.025 585.318 199.305 585.318C200.283 585.318 201.101 585.485 201.76 585.818C202.419 586.144 202.949 586.553 203.351 587.045C203.76 587.53 204.074 588.008 204.294 588.477H204.476V585.545H209.283L209.283 603.17C209.283 604.655 208.919 605.898 208.192 606.898C207.464 607.898 206.457 608.648 205.169 609.148C203.889 609.655 202.415 609.909 200.749 609.909ZM200.851 599.114C201.631 599.114 202.29 598.92 202.828 598.534C203.374 598.14 203.79 597.58 204.078 596.852C204.374 596.117 204.521 595.239 204.521 594.216C204.521 593.193 204.377 592.307 204.089 591.557C203.802 590.799 203.385 590.212 202.839 589.795C202.294 589.379 201.631 589.17 200.851 589.17C200.055 589.17 199.385 589.386 198.839 589.818C198.294 590.242 197.881 590.833 197.601 591.591C197.321 592.348 197.18 593.223 197.18 594.216C197.18 595.223 197.321 596.095 197.601 596.83C197.889 597.557 198.302 598.121 198.839 598.523C199.385 598.917 200.055 599.114 200.851 599.114ZM217.976 592.909V603H213.135L213.135 579.727H217.839L217.839 588.625H218.044C218.438 587.595 219.074 586.788 219.953 586.205C220.832 585.614 221.934 585.318 223.26 585.318C224.472 585.318 225.529 585.583 226.43 586.114C227.339 586.636 228.044 587.39 228.544 588.375C229.052 589.352 229.302 590.523 229.294 591.886L229.294 603H224.453V592.75C224.461 591.674 224.188 590.837 223.635 590.239C223.089 589.64 222.324 589.341 221.339 589.341C220.68 589.341 220.097 589.481 219.589 589.761C219.089 590.042 218.696 590.451 218.408 590.989C218.127 591.519 217.983 592.159 217.976 592.909ZM241.058 603.341C239.263 603.341 237.717 602.977 236.422 602.25C235.134 601.515 234.142 600.477 233.445 599.136C232.748 597.788 232.399 596.193 232.399 594.352C232.399 592.557 232.748 590.981 233.445 589.625C234.142 588.269 235.123 587.212 236.388 586.455C237.661 585.697 239.153 585.318 240.865 585.318C242.017 585.318 243.089 585.504 244.081 585.875C245.081 586.239 245.952 586.788 246.695 587.523C247.445 588.258 248.028 589.182 248.445 590.295C248.861 591.402 249.07 592.697 249.07 594.182V595.511L234.331 595.511L234.331 592.511L244.513 592.511C244.513 591.814 244.361 591.197 244.058 590.659C243.755 590.121 243.335 589.701 242.797 589.398C242.267 589.087 241.649 588.932 240.945 588.932C240.21 588.932 239.558 589.102 238.99 589.443C238.429 589.777 237.99 590.227 237.672 590.795C237.354 591.356 237.191 591.981 237.183 592.67L237.183 595.523C237.183 596.386 237.342 597.133 237.661 597.761C237.986 598.39 238.445 598.875 239.036 599.216C239.626 599.557 240.327 599.727 241.138 599.727C241.676 599.727 242.168 599.652 242.615 599.5C243.062 599.348 243.445 599.121 243.763 598.818C244.081 598.515 244.323 598.144 244.49 597.705L248.967 598C248.74 599.076 248.274 600.015 247.57 600.818C246.873 601.614 245.971 602.235 244.865 602.682C243.767 603.121 242.498 603.341 241.058 603.341ZM252.229 603L252.229 585.545H256.922V588.591H257.104C257.422 587.508 257.956 586.689 258.706 586.136C259.456 585.576 260.32 585.295 261.297 585.295C261.539 585.295 261.801 585.311 262.081 585.341C262.361 585.371 262.607 585.413 262.82 585.466V589.761C262.592 589.693 262.278 589.633 261.876 589.58C261.475 589.527 261.107 589.5 260.774 589.5C260.062 589.5 259.426 589.655 258.865 589.966C258.312 590.269 257.873 590.693 257.547 591.239C257.229 591.784 257.07 592.413 257.07 593.125V603H252.229ZM272.82 579.727H278.888L285.297 595.364H285.57L291.979 579.727H298.047L298.047 603H293.274L293.274 587.852H293.081L287.058 602.886H283.808L277.786 587.795H277.592L277.592 603H272.82L272.82 579.727ZM309.896 603.341C308.131 603.341 306.605 602.966 305.317 602.216C304.036 601.458 303.048 600.405 302.351 599.057C301.654 597.701 301.305 596.129 301.305 594.341C301.305 592.538 301.654 590.962 302.351 589.614C303.048 588.258 304.036 587.205 305.317 586.455C306.605 585.697 308.131 585.318 309.896 585.318C311.661 585.318 313.184 585.697 314.464 586.455C315.752 587.205 316.745 588.258 317.442 589.614C318.139 590.962 318.487 592.538 318.487 594.341C318.487 596.129 318.139 597.701 317.442 599.057C316.745 600.405 315.752 601.458 314.464 602.216C313.184 602.966 311.661 603.341 309.896 603.341ZM309.919 599.591C310.722 599.591 311.393 599.364 311.93 598.909C312.468 598.447 312.874 597.818 313.146 597.023C313.427 596.227 313.567 595.322 313.567 594.307C313.567 593.292 313.427 592.386 313.146 591.591C312.874 590.795 312.468 590.167 311.93 589.705C311.393 589.242 310.722 589.011 309.919 589.011C309.108 589.011 308.427 589.242 307.874 589.705C307.328 590.167 306.915 590.795 306.635 591.591C306.362 592.386 306.226 593.292 306.226 594.307C306.226 595.322 306.362 596.227 306.635 597.023C306.915 597.818 307.328 598.447 307.874 598.909C308.427 599.364 309.108 599.591 309.919 599.591ZM321.635 603L321.635 585.545H326.328V588.591H326.51C326.828 587.508 327.362 586.689 328.112 586.136C328.862 585.576 329.726 585.295 330.703 585.295C330.946 585.295 331.207 585.311 331.487 585.341C331.768 585.371 332.014 585.413 332.226 585.466V589.761C331.999 589.693 331.684 589.633 331.283 589.58C330.881 589.527 330.514 589.5 330.18 589.5C329.468 589.5 328.832 589.655 328.271 589.966C327.718 590.269 327.279 590.693 326.953 591.239C326.635 591.784 326.476 592.413 326.476 593.125L326.476 603H321.635ZM344.888 585.545V589.182H334.376V585.545H344.888ZM336.763 581.364H341.604L341.604 597.636C341.604 598.083 341.672 598.432 341.808 598.682C341.945 598.924 342.134 599.095 342.376 599.193C342.626 599.292 342.914 599.341 343.24 599.341C343.467 599.341 343.695 599.322 343.922 599.284C344.149 599.239 344.323 599.205 344.445 599.182L345.206 602.784C344.964 602.86 344.623 602.947 344.183 603.045C343.744 603.152 343.21 603.216 342.581 603.239C341.414 603.284 340.392 603.129 339.513 602.773C338.642 602.417 337.964 601.864 337.479 601.114C336.994 600.364 336.755 599.417 336.763 598.273L336.763 581.364ZM353.018 603.33C351.905 603.33 350.912 603.136 350.041 602.75C349.17 602.356 348.481 601.777 347.973 601.011C347.473 600.239 347.223 599.277 347.223 598.125C347.223 597.155 347.401 596.341 347.757 595.682C348.113 595.023 348.598 594.492 349.212 594.091C349.825 593.689 350.522 593.386 351.303 593.182C352.09 592.977 352.916 592.833 353.78 592.75C354.795 592.644 355.613 592.545 356.234 592.455C356.856 592.356 357.306 592.212 357.587 592.023C357.867 591.833 358.007 591.553 358.007 591.182V591.114C358.007 590.394 357.78 589.837 357.325 589.443C356.878 589.049 356.242 588.852 355.416 588.852C354.545 588.852 353.852 589.045 353.337 589.432C352.821 589.811 352.481 590.288 352.314 590.864L347.837 590.5C348.064 589.439 348.511 588.523 349.178 587.75C349.844 586.97 350.704 586.371 351.757 585.955C352.818 585.53 354.045 585.318 355.439 585.318C356.409 585.318 357.337 585.432 358.223 585.659C359.117 585.886 359.909 586.239 360.598 586.716C361.295 587.193 361.844 587.807 362.246 588.557C362.647 589.299 362.848 590.189 362.848 591.227L362.848 603H358.257V600.58H358.121C357.84 601.125 357.465 601.606 356.996 602.023C356.526 602.432 355.962 602.754 355.303 602.989C354.643 603.216 353.882 603.33 353.018 603.33ZM354.405 599.989C355.117 599.989 355.746 599.848 356.291 599.568C356.837 599.28 357.265 598.894 357.575 598.409C357.886 597.924 358.041 597.375 358.041 596.761V594.909C357.89 595.008 357.681 595.098 357.416 595.182C357.159 595.258 356.867 595.33 356.541 595.398C356.215 595.458 355.89 595.515 355.564 595.568C355.238 595.614 354.943 595.655 354.678 595.693C354.109 595.777 353.613 595.909 353.189 596.091C352.765 596.273 352.435 596.519 352.2 596.83C351.965 597.133 351.848 597.511 351.848 597.966C351.848 598.625 352.087 599.129 352.564 599.477C353.049 599.818 353.662 599.989 354.405 599.989ZM371.445 579.727L371.445 603L366.604 603L366.604 579.727L371.445 579.727ZM375.322 603L375.322 585.545H380.163L380.163 603H375.322ZM377.754 583.295C377.035 583.295 376.417 583.057 375.902 582.58C375.394 582.095 375.141 581.515 375.141 580.841C375.141 580.174 375.394 579.602 375.902 579.125C376.417 578.64 377.035 578.398 377.754 578.398C378.474 578.398 379.088 578.64 379.595 579.125C380.11 579.602 380.368 580.174 380.368 580.841C380.368 581.515 380.11 582.095 379.595 582.58C379.088 583.057 378.474 583.295 377.754 583.295ZM393.325 585.545L393.325 589.182H382.814V585.545H393.325ZM385.2 581.364H390.041L390.041 597.636C390.041 598.083 390.109 598.432 390.246 598.682C390.382 598.924 390.571 599.095 390.814 599.193C391.064 599.292 391.352 599.341 391.678 599.341C391.905 599.341 392.132 599.322 392.359 599.284C392.587 599.239 392.761 599.205 392.882 599.182L393.643 602.784C393.401 602.86 393.06 602.947 392.621 603.045C392.181 603.152 391.647 603.216 391.018 603.239C389.852 603.284 388.829 603.129 387.95 602.773C387.079 602.417 386.401 601.864 385.916 601.114C385.431 600.364 385.193 599.417 385.2 598.273L385.2 581.364ZM399.467 609.545C398.854 609.545 398.278 609.496 397.74 609.398C397.21 609.307 396.77 609.189 396.422 609.045L397.513 605.432C398.081 605.606 398.592 605.701 399.047 605.716C399.509 605.731 399.907 605.625 400.24 605.398C400.581 605.17 400.857 604.784 401.07 604.239L401.354 603.5L395.092 585.545H400.183L403.797 598.364H403.979L407.626 585.545H412.751L405.967 604.886C405.642 605.826 405.198 606.644 404.638 607.341C404.085 608.045 403.384 608.587 402.536 608.966C401.687 609.352 400.664 609.545 399.467 609.545ZM422.726 603L422.726 579.727H431.908C433.665 579.727 435.165 580.042 436.408 580.67C437.658 581.292 438.608 582.174 439.26 583.318C439.919 584.455 440.249 585.792 440.249 587.33C440.249 588.875 439.915 590.205 439.249 591.318C438.582 592.424 437.616 593.273 436.351 593.864C435.093 594.455 433.571 594.75 431.783 594.75H425.635V590.795H430.987C431.927 590.795 432.707 590.667 433.328 590.409C433.949 590.152 434.411 589.765 434.714 589.25C435.025 588.735 435.18 588.095 435.18 587.33C435.18 586.557 435.025 585.905 434.714 585.375C434.411 584.845 433.946 584.443 433.317 584.17C432.696 583.89 431.911 583.75 430.964 583.75H427.646L427.646 603H422.726ZM435.294 592.409L441.078 603L435.646 603L429.987 592.409H435.294ZM448.612 603.33C447.499 603.33 446.506 603.136 445.635 602.75C444.764 602.356 444.074 601.777 443.567 601.011C443.067 600.239 442.817 599.277 442.817 598.125C442.817 597.155 442.995 596.341 443.351 595.682C443.707 595.023 444.192 594.492 444.805 594.091C445.419 593.689 446.116 593.386 446.896 593.182C447.684 592.977 448.51 592.833 449.374 592.75C450.389 592.644 451.207 592.545 451.828 592.455C452.449 592.356 452.9 592.212 453.18 592.023C453.461 591.833 453.601 591.553 453.601 591.182V591.114C453.601 590.394 453.374 589.837 452.919 589.443C452.472 589.049 451.836 588.852 451.01 588.852C450.139 588.852 449.446 589.045 448.93 589.432C448.415 589.811 448.074 590.288 447.908 590.864L443.43 590.5C443.658 589.439 444.105 588.523 444.771 587.75C445.438 586.97 446.298 586.371 447.351 585.955C448.411 585.53 449.639 585.318 451.033 585.318C452.002 585.318 452.93 585.432 453.817 585.659C454.711 585.886 455.502 586.239 456.192 586.716C456.889 587.193 457.438 587.807 457.839 588.557C458.241 589.299 458.442 590.189 458.442 591.227V603H453.851V600.58H453.714C453.434 601.125 453.059 601.606 452.589 602.023C452.12 602.432 451.555 602.754 450.896 602.989C450.237 603.216 449.476 603.33 448.612 603.33ZM449.999 599.989C450.711 599.989 451.339 599.848 451.885 599.568C452.43 599.28 452.858 598.894 453.169 598.409C453.48 597.924 453.635 597.375 453.635 596.761V594.909C453.483 595.008 453.275 595.098 453.01 595.182C452.752 595.258 452.461 595.33 452.135 595.398C451.809 595.458 451.483 595.515 451.158 595.568C450.832 595.614 450.536 595.655 450.271 595.693C449.703 595.777 449.207 595.909 448.783 596.091C448.358 596.273 448.029 596.519 447.794 596.83C447.559 597.133 447.442 597.511 447.442 597.966C447.442 598.625 447.68 599.129 448.158 599.477C448.643 599.818 449.256 599.989 449.999 599.989ZM471.482 585.545L471.482 589.182H460.97L460.97 585.545H471.482ZM463.357 581.364H468.197L468.197 597.636C468.197 598.083 468.266 598.432 468.402 598.682C468.538 598.924 468.728 599.095 468.97 599.193C469.22 599.292 469.508 599.341 469.834 599.341C470.061 599.341 470.288 599.322 470.516 599.284C470.743 599.239 470.917 599.205 471.038 599.182L471.8 602.784C471.557 602.86 471.216 602.947 470.777 603.045C470.338 603.152 469.804 603.216 469.175 603.239C468.008 603.284 466.985 603.129 466.107 602.773C465.235 602.417 464.557 601.864 464.072 601.114C463.588 600.364 463.349 599.417 463.357 598.273L463.357 581.364ZM482.402 603.341C480.607 603.341 479.061 602.977 477.766 602.25C476.478 601.515 475.485 600.477 474.788 599.136C474.091 597.788 473.743 596.193 473.743 594.352C473.743 592.557 474.091 590.981 474.788 589.625C475.485 588.269 476.466 587.212 477.732 586.455C479.004 585.697 480.497 585.318 482.209 585.318C483.36 585.318 484.432 585.504 485.425 585.875C486.425 586.239 487.296 586.788 488.038 587.523C488.788 588.258 489.372 589.182 489.788 590.295C490.205 591.402 490.413 592.697 490.413 594.182V595.511H475.675V592.511H485.857C485.857 591.814 485.705 591.197 485.402 590.659C485.099 590.121 484.679 589.701 484.141 589.398C483.61 589.087 482.993 588.932 482.288 588.932C481.554 588.932 480.902 589.102 480.334 589.443C479.773 589.777 479.334 590.227 479.016 590.795C478.697 591.356 478.535 591.981 478.527 592.67V595.523C478.527 596.386 478.686 597.133 479.004 597.761C479.33 598.39 479.788 598.875 480.379 599.216C480.97 599.557 481.671 599.727 482.482 599.727C483.019 599.727 483.512 599.652 483.959 599.5C484.406 599.348 484.788 599.121 485.107 598.818C485.425 598.515 485.667 598.144 485.834 597.705L490.311 598C490.084 599.076 489.618 600.015 488.913 600.818C488.216 601.614 487.315 602.235 486.209 602.682C485.11 603.121 483.841 603.341 482.402 603.341Z" fill="#8A8A8A"/>
</svg>
